HIERARCHY
ROOT Hips
{
  OFFSET 53.2347 96.0459 6.99658
  CHANNELS 6 Xposition Yposition Zposition Zrotation Xrotation Yrotation
  JOINT spine
  {
    OFFSET 0 8.13249 0.467659
    CHANNELS 3 Zrotation Xrotation Yrotation
    JOINT spine1
    {
      OFFSET 0 10.3498 0
      CHANNELS 3 Zrotation Xrotation Yrotation
      JOINT spine2
      {
        OFFSET 0 9.91699 0
        CHANNELS 3 Zrotation Xrotation Yrotation
        JOINT Neck
        {
          OFFSET 0 25.461 1.2139
          CHANNELS 3 Zrotation Xrotation Yrotation
          JOINT Head
          {
            OFFSET 0 7.69245 0
            CHANNELS 3 Zrotation Xrotation Yrotation
            End Site
            {
              OFFSET 0 18.62 -6.14063
            }
          }
        }
        JOINT RightShoulder
        {
          OFFSET -4.17575 10.7096 -0.581445
          CHANNELS 3 Zrotation Xrotation Yrotation
          JOINT RightArm
          {
            OFFSET 0 14.0466 0
            CHANNELS 3 Zrotation Xrotation Yrotation
            JOINT RightArmRoll
            {
              OFFSET 0 7.09098 0
              CHANNELS 3 Zrotation Xrotation Yrotation
              JOINT RightForeArm
              {
                OFFSET 0 20.6535 0
                CHANNELS 3 Zrotation Xrotation Yrotation
                JOINT RightForeArmRoll
                {
                  OFFSET 0 7.95718 0
                  CHANNELS 3 Zrotation Xrotation Yrotation
                  JOINT RightHand
                  {
                    OFFSET 0 15.9683 0
                    CHANNELS 3 Zrotation Xrotation Yrotation
                    End Site
                    {
                      OFFSET 0 0 0
                    }
                  }
                }
              }
            }
          }
        }
        JOINT LeftShoulder
        {
          OFFSET 4.17575 10.7096 -0.581445
          CHANNELS 3 Zrotation Xrotation Yrotation
          JOINT LeftArm
          {
            OFFSET 0 14.0466 0
            CHANNELS 3 Zrotation Xrotation Yrotation
            JOINT LeftArmRoll
            {
              OFFSET 0 7.09098 0
              CHANNELS 3 Zrotation Xrotation Yrotation
              JOINT LeftForeArm
              {
                OFFSET 0 20.6535 0
                CHANNELS 3 Zrotation Xrotation Yrotation
                JOINT LeftForeArmRoll
                {
                  OFFSET 0 7.95718 0
                  CHANNELS 3 Zrotation Xrotation Yrotation
                  JOINT LeftHand
                  {
                    OFFSET 0 15.9683 0
                    CHANNELS 3 Zrotation Xrotation Yrotation
                    End Site
                    {
                      OFFSET 0 0 0
                    }
                  }
                }
              }
            }
          }
        }
      }
    }
  }
  JOINT RightUpLeg
  {
    OFFSET -7.20834 -1.32182 -1.10884
    CHANNELS 3 Zrotation Xrotation Yrotation
    JOINT RightUpLegRoll
    {
      OFFSET 0 18.7238 0
      CHANNELS 3 Zrotation Xrotation Yrotation
      JOINT RightLeg
      {
        OFFSET 0 -23.1866 0
        CHANNELS 3 Zrotation Xrotation Yrotation
        JOINT RightLegRoll
        {
          OFFSET 0 23.2624 0
          CHANNELS 3 Zrotation Xrotation Yrotation
          JOINT RightFoot
          {
            OFFSET 0 19.3621 0
            CHANNELS 3 Zrotation Xrotation Yrotation
            JOINT RightToeBase
            {
              OFFSET 0 16.1857 0
              CHANNELS 3 Zrotation Xrotation Yrotation
              End Site
              {
                OFFSET 0.00686052 7.83863 -0.903522
              }
            }
          }
        }
      }
    }
  }
  JOINT LeftUpLeg
  {
    OFFSET 7.20834 -1.32182 -1.10884
    CHANNELS 3 Zrotation Xrotation Yrotation
    JOINT LeftUpLegRoll
    {
      OFFSET 0 18.7239 0
      CHANNELS 3 Zrotation Xrotation Yrotation
      JOINT LeftLeg
      {
        OFFSET 0 23.1865 0
        CHANNELS 3 Zrotation Xrotation Yrotation
        JOINT LeftLegRoll
        {
          OFFSET 0 23.4775 0
          CHANNELS 3 Zrotation Xrotation Yrotation
          JOINT LeftFoot
          {
            OFFSET 0 19.147 0
            CHANNELS 3 Zrotation Xrotation Yrotation
            JOINT LeftToeBase
            {
              OFFSET 0 16.1857 0
              CHANNELS 3 Zrotation Xrotation Yrotation
              End Site
              {
                OFFSET -0.0307459 7.83863 -0.903522
              }
            }
          }
        }
      }
    }
  }
}
MOTION
Frames: 4
Frame Time: 0.00208333
53.2011 96.0695 5.98708 -0.811697 -1.38338 0.00915843 0.368492 -2.13102 0.0423696 0.737191 -0.253762 0.0519492 0.736786 1.39123 0.0396717 -9.51698 20.0531 -2.60256 1.33209 4.91319 -5.68459 12.2827 -17.782 -17.3894 -3.99305 49.9453 108.635 1.5915e-006 -2.57783e-007 -7.76797e-006 -3.41697 65.8836 8.31263 2.36719e-006 -2.25409e-006 -3.00442 8.02988 -4.95141 0.697664 -36.1648 -16.2558 12.1251 22.1206 35.892 -113.717 6.63708e-006 6.29243e-007 2.22327e-006 1.27973 55.8825 -2.75 -2.23995e-006 -1.36353e-007 3.00217 -8.0294 -4.95143 -0.697676 173.194 3.65365 3.40179 180 7.01577e-015 179.062 178.416 8.96213 179.67 -5.4299e-007 -1.14586e-006 -0.0859531 -15.5009 66.9621 18.7765 8.13649 25.2326 -3.48773 -172.678 3.20126 -1.62247 4.5067e-006 -1.99009e-005 -0.880641 -0.890634 -12.8586 0.506758 -1.36568e-006 -1.61706e-006 -0.153384 19.1838 71.2894 -22.5032 -8.1367 25.2357 3.4837 
53.2076 96.0686 5.98679 -0.817343 -1.36817 0.00748157 0.367196 -2.13496 0.0414708 0.734576 -0.260823 0.0500158 0.734189 1.38417 0.0377727 -9.43161 20.0601 -2.61835 1.24545 4.94447 -5.67865 12.3034 -17.8132 -17.4314 -4.09622 49.8804 108.924 1.5915e-006 -2.57783e-007 -7.76797e-006 -3.43795 65.9185 8.3727 2.36719e-006 -2.25409e-006 -3.00443 8.02988 -4.95141 0.697664 -36.1472 -16.2766 12.1471 22.0999 35.8829 -113.672 6.63708e-006 6.29243e-007 2.22327e-006 1.27395 55.8846 -2.74697 -2.23995e-006 -1.36353e-007 3.00216 -8.0294 -4.95143 -0.697676 173.202 3.666 3.39618 180 7.01577e-015 179.062 178.417 8.95815 179.67 -5.4299e-007 -1.14586e-006 -0.0859619 -15.5024 66.9622 18.7768 8.13649 25.2326 -3.48773 -172.67 3.21526 -1.62676 4.5067e-006 -1.99009e-005 -0.880679 -0.891969 -12.8601 0.506425 -1.36568e-006 -1.61706e-006 -0.153442 19.1805 71.2915 -22.5051 -8.1367 25.2357 3.4837 
53.2046 96.0687 5.98869 -0.823053 -1.35344 0.00605196 0.366028 -2.1389 0.040484 0.732215 -0.267957 0.0479062 0.731847 1.37704 0.0356934 -9.34987 20.0692 -2.63276 1.16171 4.97432 -5.67247 12.3247 -17.8418 -17.4695 -4.18546 49.8167 109.197 1.5915e-006 -2.57783e-007 -7.76797e-006 -3.46042 65.9472 8.43188 2.36719e-006 -2.25409e-006 -3.00444 8.02988 -4.95141 0.697664 -36.1329 -16.295 12.1665 22.0703 35.8782 -113.61 6.63708e-006 6.29243e-007 2.22327e-006 1.26907 55.8829 -2.74255 -2.23995e-006 -1.36353e-007 3.00215 -8.0294 -4.95143 -0.697676 173.21 3.67799 3.39052 180 7.01577e-015 179.062 178.417 8.9545 179.67 -5.4299e-007 -1.14586e-006 -0.0859625 -15.5039 66.9624 18.7772 8.13649 25.2326 -3.48773 -172.662 3.22893 -1.63114 4.5067e-006 -1.99009e-005 -0.880711 -0.893256 -12.8618 0.506131 -1.36568e-006 -1.61706e-006 -0.153501 19.1773 71.2937 -22.5071 -8.1367 25.2357 3.4837 
53.1975 96.0689 5.99262 -0.828787 -1.33928 0.00488883 0.364999 -2.14277 0.0394061 0.730131 -0.275067 0.045621 0.729784 1.36993 0.0334344 -9.27299 20.0798 -2.64551 1.08243 5.00301 -5.66604 12.3462 -17.8678 -17.5037 -4.25871 49.7558 109.446 1.5915e-006 -2.57783e-007 -7.76797e-006 -3.4825 65.9724 8.48828 2.36719e-006 -2.25409e-006 -3.00446 8.02988 -4.95141 0.697664 -36.1221 -16.3111 12.1832 22.032 35.8771 -113.534 6.63708e-006 6.29243e-007 2.22327e-006 1.26512 55.8777 -2.73693 -2.23995e-006 -1.36353e-007 3.00215 -8.0294 -4.95143 -0.697676 173.218 3.68953 3.38484 180 7.01577e-015 179.063 178.418 8.95122 179.67 -5.4299e-007 -1.14586e-006 -0.0859541 -15.5055 66.9628 18.7776 8.13649 25.2326 -3.48773 -172.653 3.24217 -1.63555 4.5067e-006 -1.99009e-005 -0.880738 -0.894483 -12.8638 0.505883 -1.36568e-006 -1.61706e-006 -0.15356 19.1742 71.2961 -22.5093 -8.1367 25.2357 3.4837 
